<?xml version="1.0" encoding="utf-8"?>
<!-- Generator: Adobe Illustrator 19.2.1, SVG Export Plug-In . SVG Version: 6.00 Build 0)  -->
<svg version="1.1" id="Layer_1" xmlns="http://www.w3.org/2000/svg" xmlns:xlink="http://www.w3.org/1999/xlink" x="0px" y="0px"
	 viewBox="0 0 72 72" style="enable-background:new 0 0 72 72;" xml:space="preserve">
<path d="M36,2.083C17.298,2.083,2.083,17.298,2.083,36S17.298,69.917,36,69.917S69.917,54.702,69.917,36S54.702,2.083,36,2.083z
	 M36,64.946C20.039,64.946,7.053,51.961,7.053,36S20.039,7.053,36,7.053S64.946,20.038,64.946,36
	C64.946,51.961,51.961,64.946,36,64.946z M36.293,23.336l10.18,10.179H20.469v4.97h26.004l-10.18,10.18l3.515,3.514L55.987,36
	L39.808,19.821L36.293,23.336z"/>
</svg>
