<?xml version="1.0" encoding="utf-8"?>
<!-- Generator: Adobe Illustrator 19.2.1, SVG Export Plug-In . SVG Version: 6.00 Build 0)  -->
<svg version="1.1" id="Icon" xmlns="http://www.w3.org/2000/svg" xmlns:xlink="http://www.w3.org/1999/xlink" x="0px" y="0px"
	 viewBox="0 0 144 144" style="enable-background:new 0 0 144 144;" xml:space="preserve">
<path d="M124.435,38.184v-12.64H8.306v80.075h11.26v12.837h116.128V50.472V38.381v-0.197H124.435z M10.556,103.369V27.794h111.628
	v10.39H19.566v0.197v12.091v52.897H10.556z M21.816,40.631h111.628v7.591H21.816V40.631z M133.444,116.206H21.816V50.472h111.628
	V116.206z M29.224,44.328c0,0.861-0.698,1.559-1.559,1.559c-0.861,0-1.559-0.698-1.559-1.559s0.698-1.559,1.559-1.559
	C28.526,42.769,29.224,43.467,29.224,44.328z M34.461,44.328c0,0.861-0.698,1.559-1.559,1.559s-1.559-0.698-1.559-1.559
	s0.698-1.559,1.559-1.559S34.461,43.467,34.461,44.328z M39.698,44.328c0,0.861-0.698,1.559-1.559,1.559
	c-0.861,0-1.559-0.698-1.559-1.559s0.698-1.559,1.559-1.559C39,42.769,39.698,43.467,39.698,44.328z M121.526,64.456H75.208v38
	h46.319V64.456z M96.581,83.456L77.458,98.97V67.943L96.581,83.456z M79.505,66.706h37.724L98.367,82.008L79.505,66.706z
	 M98.367,84.905l18.862,15.301H79.505L98.367,84.905z M100.153,83.456l19.124-15.514V98.97L100.153,83.456z M57.56,70.206H30.401
	v-2.25H57.56V70.206z M60.196,79.79H30.401v-2.25h29.795V79.79z M64.151,89.373h-33.75v-2.25h33.75V89.373z M30.401,98.956v-2.25
	h21.094v2.25H30.401z"/>
</svg>
