<?xml version="1.0" encoding="utf-8"?>
<!-- Generator: Adobe Illustrator 19.2.1, SVG Export Plug-In . SVG Version: 6.00 Build 0)  -->
<svg version="1.1" id="Icon" xmlns="http://www.w3.org/2000/svg" xmlns:xlink="http://www.w3.org/1999/xlink" x="0px" y="0px"
	 viewBox="0 0 144 144" style="enable-background:new 0 0 144 144;" xml:space="preserve">
<path d="M70.067,43.204c2.209,0,4-1.791,4-4c0-2.209-1.791-4-4-4s-4,1.791-4,4C66.067,41.413,67.858,43.204,70.067,43.204z
	 M70.067,37.204c1.103,0,2,0.897,2,2c0,1.103-0.897,2-2,2s-2-0.897-2-2C68.067,38.101,68.964,37.204,70.067,37.204z M70.067,55.204
	c-1.371,0-2.694-0.191-3.964-0.515l-9.198,26.443c4.27,1.335,8.716,2.002,13.162,2.002s8.892-0.667,13.162-2.002l-9.198-26.443
	C72.761,55.013,71.438,55.204,70.067,55.204z M70.067,81.134c-3.586,0-7.135-0.451-10.578-1.343l7.928-22.794
	c0.892,0.138,1.778,0.207,2.649,0.207c0.871,0,1.757-0.069,2.649-0.207l7.928,22.794C77.202,80.683,73.653,81.134,70.067,81.134z
	 M109.666,75.973l-1.415-1.414l-5.658-5.656l-1.415-1.414l-1.414,1.415c-3.374,3.376-7.268,6.116-11.598,8.162l-7.99-22.971
	c4.905-3.333,7.89-8.896,7.89-14.89c0-7.675-4.862-14.438-12-16.955v-7.045v-2h-2h-8h-2v2v7.045c-7.138,2.517-12,9.28-12,16.955
	c0,5.995,2.985,11.557,7.89,14.89l-24.966,72.184l-0.657,1.889l1.889,0.657l3.778,1.314l1.889,0.657l0.657-1.889l12.991-37.756
	c4.733,1.32,9.612,1.989,14.529,1.989c4.917,0,9.796-0.668,14.529-1.989l13.137,37.756l0.657,1.889l1.889-0.657l3.778-1.314
	l1.889-0.657l-0.657-1.889L92.126,88.447c6.049-2.685,11.467-6.399,16.126-11.059L109.666,75.973z M89.622,87.335l13.779,39.6
	l-3.778,1.314L85.857,88.688c-5.117,1.627-10.453,2.452-15.79,2.452c-5.338,0-10.671-0.824-15.79-2.452L40.658,128.25l-3.778-1.314
	l25.494-73.703c-4.95-2.721-8.307-7.981-8.307-14.028c0-7.452,5.103-13.696,12-15.476v-8.524h8v8.524
	c6.897,1.779,12,8.023,12,15.476c0,6.047-3.357,11.308-8.307,14.028l9.231,26.54c5.354-2.212,10.119-5.383,14.189-9.455l5.658,5.656
	C101.907,80.905,96.123,84.715,89.622,87.335z"/>
</svg>
