<?xml version="1.0" encoding="utf-8"?>
<!-- Generator: Adobe Illustrator 19.2.1, SVG Export Plug-In . SVG Version: 6.00 Build 0)  -->
<svg version="1.1" id="Icon" xmlns="http://www.w3.org/2000/svg" xmlns:xlink="http://www.w3.org/1999/xlink" x="0px" y="0px"
	 viewBox="0 0 144 144" style="enable-background:new 0 0 144 144;" xml:space="preserve">
<path d="M111.932,46.066c-4.286-21.877-24.391-35.715-46.759-32.184C54.468,15.571,44.699,21.85,38.371,31.11
	c-6.323,9.251-8.625,20.618-6.314,31.187c2.259,10.335,7.705,18.728,16.185,24.947c4.863,3.566,7.929,8.313,9.112,14.11
	c0.196,0.959,0.304,1.938,0.419,2.973c0.021,0.193,0.046,0.389,0.068,0.583v17.758h5.867c0.5,4.493,4.317,8,8.941,8
	s8.441-3.507,8.941-8h4.57v-17.714c0.051-0.349,0.107-0.701,0.155-1.046c0.189-1.347,0.368-2.619,0.684-3.849
	c1.3-5.062,4.274-9.337,9.09-13.07C109.834,76.336,115.165,62.568,111.932,46.066z M72.648,128.667c-3.521,0-6.442-2.612-6.929-6
	h13.857C79.09,126.054,76.169,128.667,72.648,128.667z M84.159,120.667h-2.511h-18h-3.808v-14h24.318V120.667z M94.864,85.407
	c-5.181,4.015-8.387,8.645-9.803,14.153c-0.344,1.339-0.539,2.727-0.727,4.069c-0.048,0.344-0.097,0.69-0.148,1.038H59.823
	c-0.021-0.188-0.042-0.375-0.062-0.561c-0.115-1.034-0.233-2.104-0.447-3.152c-1.287-6.299-4.614-11.455-9.89-15.324
	c-8.075-5.921-13.261-13.916-15.413-23.76c-2.193-10.033-0.002-20.833,6.011-29.631c6.02-8.807,15.3-14.778,25.463-16.381
	c21.285-3.354,40.411,9.794,44.485,30.593C113.044,62.15,107.962,75.257,94.864,85.407z M72.009,52.805c-0.004,0-0.008,0-0.012,0
	c-1.051,0.003-2.04,0.418-2.783,1.167c-0.741,0.747-1.146,1.733-1.14,2.778c0.006,1.046,0.422,2.03,1.174,2.771
	c0.744,0.732,1.721,1.135,2.757,1.135c0.012,0,0.024,0,0.036,0c1.042-0.01,2.021-0.428,2.755-1.176
	c0.739-0.754,1.141-1.751,1.129-2.807C75.903,54.538,74.147,52.805,72.009,52.805z M73.368,58.081
	c-0.36,0.367-0.837,0.571-1.345,0.576c-0.517-0.019-1-0.194-1.371-0.56c-0.37-0.364-0.575-0.846-0.578-1.357
	c-0.003-0.51,0.196-0.993,0.56-1.359c0.366-0.37,0.853-0.574,1.368-0.576c0.002,0,0.004,0,0.006,0c1.029,0,1.906,0.864,1.917,1.89
	C73.931,57.216,73.733,57.708,73.368,58.081z M88.4,58.107c0.028-0.409,0.042-0.929,0.042-1.568c0-0.276-0.017-0.656-0.051-1.139
	c-0.011-0.155-0.02-0.294-0.027-0.417l3.933-2.972c0.68-0.486,1.165-1.439,0.468-2.691l-4.158-6.863
	c-0.586-1.054-1.575-1.397-2.504-0.929l-4.646,1.841c-1.01-0.697-1.905-1.226-2.709-1.601l-0.608-4.778l-0.022-0.116
	c-0.24-0.961-1.002-1.535-2.038-1.535h-8.255c-1.036,0-1.798,0.574-2.038,1.535l-0.716,4.886c-0.684,0.327-1.58,0.861-2.712,1.616
	l-4.768-1.854c-0.998-0.374-1.923-0.001-2.372,0.904l-4.214,6.966c-0.452,0.903-0.313,1.82,0.38,2.514l4.156,3.085
	c-0.007,0.121-0.017,0.257-0.027,0.41c-0.034,0.483-0.051,0.863-0.051,1.139c0,0.276,0.017,0.656,0.051,1.139
	c0.011,0.155,0.021,0.294,0.027,0.417l-3.933,2.972c-0.68,0.485-1.165,1.439-0.468,2.691l4.147,6.846
	c0.249,0.528,0.605,0.878,1.06,1.042c0.313,0.112,0.815,0.181,1.353-0.093l4.745-1.846c1.016,0.701,1.914,1.231,2.724,1.608
	l0.697,4.791l0.02,0.098c0.24,0.961,1.002,1.535,2.038,1.535h8.255c1.036,0,1.798-0.574,2.038-1.535l0.716-4.886
	c0.685-0.328,1.581-0.862,2.712-1.616l4.768,1.854c0.999,0.374,1.923,0.001,2.372-0.904l4.214-6.965
	c0.452-0.903,0.313-1.82-0.38-2.514L88.4,58.107z M91.248,62.722l-4.201,6.937l-5.656-2.2l-0.435,0.295
	c-1.92,1.306-2.841,1.769-3.276,1.927l-0.561,0.204l-0.851,5.848c-0.021,0.003-0.051,0.005-0.091,0.005h-8.255
	c-0.042,0-0.072-0.002-0.091-0.006l-0.848-5.827l-0.535-0.214c-0.893-0.357-1.998-1.005-3.287-1.925l-0.44-0.314l-5.67,2.205
	l-4.183-6.904c-0.021-0.039-0.037-0.072-0.048-0.098l4.739-3.58v-0.498c0-0.208-0.017-0.556-0.051-1.042
	c-0.03-0.424-0.046-0.756-0.046-0.998c0-0.242,0.016-0.574,0.046-0.998c0.035-0.486,0.051-0.833,0.051-1.042v-0.504l-4.817-3.566
	c0-0.012,0.009-0.061,0.011-0.073l4.201-6.937l5.657,2.2l0.435-0.295c1.922-1.307,2.842-1.77,3.275-1.927l0.562-0.205l0.852-5.849
	c0.021-0.003,0.051-0.005,0.09-0.005h8.255c0.04,0,0.07,0.002,0.089,0.006l0.742,5.823l0.546,0.219
	c0.891,0.356,1.996,1.003,3.286,1.925l0.443,0.316l5.65-2.239c0.013,0.02,0.027,0.044,0.042,0.072l4.158,6.863
	c0.021,0.039,0.037,0.071,0.048,0.098l-4.739,3.581v0.498c0,0.208,0.016,0.556,0.051,1.042c0.03,0.423,0.046,0.755,0.046,0.998
	c0,1.136-0.045,1.647-0.083,1.876l-0.102,0.611l5.002,3.624C91.259,62.661,91.25,62.71,91.248,62.722z"/>
</svg>
